<svg width="24" height="24" viewBox="0 0 24 24" fill="white" xmlns="http://www.w3.org/2000/svg" version="1.1" role="img"><title><!--?lit$75465331$--></title><path d="M12.4824 5.75781C13.4531 5.75781 14.6699 5.11523 15.3809 4.24023C16.0371 3.44727 16.5156 2.35352 16.5156 1.25977C16.5156 1.10938 16.502 0.958984 16.4746 0.835938C15.3945 0.876953 14.0957 1.54688 13.3301 2.44922C12.7285 3.14648 12.1543 4.24023 12.1543 5.34766C12.1543 5.51172 12.1816 5.67578 12.1953 5.73047C12.2637 5.74414 12.373 5.75781 12.4824 5.75781Z" fill="inherit"></path><path d="M9.0918 22.2051C10.418 22.2051 11.0059 21.3164 12.6465 21.3164C14.3008 21.3164 14.6836 22.1777 16.1465 22.1777C17.582 22.1777 18.5527 20.8516 19.4551 19.5391C20.4805 18.0352 20.9043 16.5859 20.918 16.5039C20.8359 16.4766 18.0742 15.3555 18.0742 12.1836C18.0742 9.43555 20.248 8.21875 20.3711 8.12305C18.9355 6.04492 16.748 5.99023 16.1465 5.99023C14.5195 5.99023 13.2207 6.97461 12.373 6.97461C11.4844 6.97461 10.3086 6.04492 8.90039 6.04492C6.24805 6.04492 3.54102 8.25977 3.54102 12.4023C3.54102 15 4.53906 17.7207 5.76953 19.4844C6.83594 20.9746 7.76562 22.2051 9.0918 22.2051Z" fill="inherit"></path></svg>